<svg xmlns:dc="http://purl.org/dc/elements/1.1/" xmlns:cc="http://creativecommons.org/ns#" xmlns:rdf="http://www.w3.org/1999/02/22-rdf-syntax-ns#" xmlns:svg="http://www.w3.org/2000/svg" xmlns="http://www.w3.org/2000/svg" version="1.1" width="3362" height="2882" id="svg2">
  <defs id="defs4"/>
<metadata xmlns="http://www.w3.org/2000/svg" id="metadata7">
    <rdf:RDF xmlns:rdf="http://www.w3.org/1999/02/22-rdf-syntax-ns#">
      <cc:Work xmlns:cc="http://creativecommons.org/ns#" rdf:about="">
        <dc:format xmlns:dc="http://purl.org/dc/elements/1.1/">image/svg+xml</dc:format>
        <dc:type xmlns:dc="http://purl.org/dc/elements/1.1/" rdf:resource="http://purl.org/dc/dcmitype/StillImage"/>
        <dc:title xmlns:dc="http://purl.org/dc/elements/1.1/"/>
      </cc:Work>
    </rdf:RDF>
  </metadata>
<g xmlns="http://www.w3.org/2000/svg" transform="matrix(4,0,0,4,-1260,-2077.0865)" id="g6563">
      <rect width="60" height="90" rx="10" ry="10" x="60" y="332.36218" id="rect2987" style="fill:#ffffff;fill-opacity:1;fill-rule:evenodd;stroke:#000000;stroke-width:0.5;stroke-miterlimit:4;stroke-dasharray:none"/>
      <rect width="50" height="80" rx="5" ry="5" x="65" y="337.36218" id="rect3757" style="fill:#ff5555;fill-opacity:1;fill-rule:evenodd;stroke:none"/>
      <path d="m 105,352.36217 c -22.09139,0 -40,17.90861 -40,40 0,5.52285 4.47715,10 10,10 22.09139,0 40,-17.90861 40,-40 0,-5.52285 -4.47715,-10 -10,-10 z" id="path3773-0-4-8-4" style="fill:#ffffff;fill-opacity:1;fill-rule:evenodd;stroke:none"/>
      <path d="m 88,362.36217 -5,5 0,6 5,-5 0,24 5,0 0,-30 z" id="rect3921" style="fill:#ff5555;fill-opacity:1;fill-rule:evenodd;stroke:none"/>
      <path d="m 70,339.86217 -2.5,2.5 0,3 2.5,-2.5 0,12 2.5,0 0,-15 z" id="rect3921-5" style="fill:#ffffff;fill-opacity:1;fill-rule:evenodd;stroke:none"/>
      <path d="m 110,414.86217 2.5,-2.5 0,-3 -2.5,2.5 0,-12 -2.5,0 0,15 z" id="rect3921-5-5" style="fill:#ffffff;fill-opacity:1;fill-rule:evenodd;stroke:none"/>
    </g>
</svg>
